<?xml version="1.0" encoding="utf-8"?>
<!-- Generator: Adobe Illustrator 17.0.0, SVG Export Plug-In . SVG Version: 6.00 Build 0)  -->
<!DOCTYPE svg PUBLIC "-//W3C//DTD SVG 1.1//EN" "http://www.w3.org/Graphics/SVG/1.1/DTD/svg11.dtd">
<svg version="1.1" id="Laag_1" xmlns="http://www.w3.org/2000/svg" xmlns:xlink="http://www.w3.org/1999/xlink" x="0px" y="0px"
	 width="216.037px" height="65.339px" viewBox="0 0 216.037 65.339" enable-background="new 0 0 216.037 65.339"
	 xml:space="preserve">
<path fill="#007BC1" d="M27.02,11.298C12.094,11.298,0,23.392,0,38.319c0,14.927,12.094,27.02,27.02,27.02
	c5.505,0,10.628-1.65,14.89-4.47l2.222,2.504h9.921V38.319C54.053,23.392,41.947,11.298,27.02,11.298z M27.02,53.019
	c-8.101,0-14.7-6.599-14.7-14.7c0-8.113,6.599-14.7,14.7-14.7c8.113,0,14.712,6.587,14.712,14.7
	C41.733,46.42,35.134,53.019,27.02,53.019z"/>
<path fill="#007BC1" d="M195.259,13.33c-4.878,0-10.341,0.585-14.535,6.828c-3.707-8.389-18.047-9.267-23.899-1.853l-1.951-4.391
	h-10.926v24.402v25.056h13.364V27.669c6.829-5.756,16.974-2.341,16.974,6.926v28.777h12.39V34.303c0-6.536,3.901-9.561,8.389-9.561
	c4.39,0,8.292,2.536,8.292,9.463v29.167h12.682V34.303C216.037,17.719,206.184,13.33,195.259,13.33z"/>
<g>
	<path fill="#007BC1" d="M81.273,52.61c0.52-0.01,1.07-0.05,1.65-0.13V63.8c-12,2.05-23.605-2.74-23.115-15.9V1.46L74.043,0v13.91
		h14.48c-3.25,3.12-5.88,6.87-7.68,11.06h-6.8V47.6C74.043,50.49,76.643,52.75,81.273,52.61z"/>
</g>
<path fill="#007BC1" d="M111.898,23.611c8.109,0,14.706,6.597,14.706,14.706s-6.597,14.706-14.706,14.706
	s-14.706-6.597-14.706-14.706S103.789,23.611,111.898,23.611L111.898,23.611z M111.898,11.295
	c-14.924,0-27.022,12.098-27.022,27.022c0,14.924,12.098,27.022,27.022,27.022c14.924,0,27.022-12.098,27.022-27.022
	C138.921,23.393,126.822,11.295,111.898,11.295L111.898,11.295z"/>
<circle fill="#E95A0C" cx="111.898" cy="38.317" r="8.097"/>
</svg>


